<mxfile host="65bd71144e">
    <diagram id="ZIdY32RHq8hFKxuun9BD" name="Page-1">
        <mxGraphModel dx="835" dy="602" grid="1" gridSize="10" guides="1" tooltips="1" connect="1" arrows="1" fold="1" page="1" pageScale="1" pageWidth="827" pageHeight="1169" math="0" shadow="0">
            <root>
                <mxCell id="0"/>
                <mxCell id="1" parent="0"/>
                <mxCell id="2" value="http://ics2o.mths.ca" style="swimlane;whiteSpace=wrap;html=1;" vertex="1" parent="1">
                    <mxGeometry x="60" y="140" width="810" height="680" as="geometry"/>
                </mxCell>
                <mxCell id="3" value="&lt;font style=&quot;font-size: 36px;&quot;&gt;Kanye-R&lt;span style=&quot;color: rgba(0, 0, 0, 0.87); font-family: fantasy; font-size: 42px;&quot;&gt;I honestly need all my Royeres to be museum quality... if I see a fake Royere Ima have to Rick James your couch&lt;/span&gt;&lt;br&gt;est&lt;/font&gt;" style="rounded=1;whiteSpace=wrap;html=1;" vertex="1" parent="2">
                    <mxGeometry x="10" y="240" width="810" height="40" as="geometry"/>
                </mxCell>
                <mxCell id="4" style="edgeStyle=none;html=1;fontFamily=Times New Roman;fontSize=36;" edge="1" parent="2" source="3" target="3">
                    <mxGeometry relative="1" as="geometry"/>
                </mxCell>
            </root>
        </mxGraphModel>
    </diagram>
</mxfile>